<svg width="35" height="24" viewBox="0 0 9.98 7.46" fill="none" xmlns="http://www.w3.org/2000/svg">
  <g id="Layer_2" data-name="Layer 2">
    <g id="Layer_1-2" data-name="Layer 1">
      <path fill-rule="evenodd" clip-rule="evenodd" d="M2.6,6.49a1.15,1.15,0,0,1-.12-.63c0-.44,0-.87,0-1.3s-.23-.67-.71-.69-.5,0-.5.48,0,1.29,0,1.93c0,.2-.06.24-.24.23H.18C0,6.51,0,6.46,0,6.32V.2C0,.12,0,0,.12,0A19.88,19.88,0,0,1,2.56.07,1.26,1.26,0,0,1,3.71,1.41a6.39,6.39,0,0,1,0,1,1.19,1.19,0,0,1-.62.87S3,3.29,3,3.34a1.47,1.47,0,0,1,.62,1.91c-.2.41-.39.81-.59,1.21A1.46,1.46,0,0,1,2.6,6.49ZM1.25,1.92v.85c0,.08,0,.16.1.15a2.88,2.88,0,0,0,.72,0,.49.49,0,0,0,.38-.45,8.68,8.68,0,0,0,0-1A.45.45,0,0,0,2,1H1.39c-.12,0-.15,0-.14.15Z" style="fill:#fb0404"/>
      <path fill-rule="evenodd" clip-rule="evenodd" d="M6.58,3.27c0-1,0-2,0-3,0-.19.06-.24.24-.23,1,0,2,0,2.92,0,.2,0,.24.06.23.24a2.17,2.17,0,0,0,0,.51C10,.93,9.9,1,9.73,1,9.18,1,8.62,1,8.07,1c-.18,0-.25,0-.24.23q0,.66,0,1.32c0,.16,0,.22.21.22H9.29c.16,0,.24,0,.22.21a5,5,0,0,0,0,.55c0,.16,0,.2-.2.2H8c-.15,0-.2,0-.2.2,0,.49,0,1,0,1.48,0,.17.06.21.22.2H9.73c.17,0,.25,0,.23.22s.1.55-.05.7-.46,0-.7,0H6.85c-.22,0-.29,0-.29-.27,0-1,0-2,0-3Z" style="fill:#3886b8"/>
      <polygon fill-rule="evenodd" clip-rule="evenodd" points="6 0 7.26 0.01 4.34 6.46 3.05 6.47 6 0" style="fill:#fefefe"/>
      <rect fill-rule="evenodd" clip-rule="evenodd" y="7.11" width="9.98" height="0.34" style="fill:#f01111"/>
    </g>
  </g>
</svg>
